<svg width="40" height="32" viewBox="0 0 40 32" fill="none" xmlns="http://www.w3.org/2000/svg">
<path d="M6.5 1.39504e-08H33.5C35.1603 -0.000108693 36.7577 0.635108 37.9645 1.77534C39.1713 2.91558 39.896 4.47439 39.99 6.132L40 6.5V25.5C40.0001 27.1603 39.3649 28.7577 38.2247 29.9645C37.0844 31.1713 35.5256 31.896 33.868 31.99L33.5 32H6.5C4.83972 32.0001 3.24234 31.3649 2.03554 30.2247C0.828734 29.0844 0.103997 27.5256 0.0100002 25.868L1.39504e-08 25.5V6.5C-0.000108693 4.83972 0.635108 3.24234 1.77534 2.03554C2.91558 0.828734 4.47439 0.103997 6.132 0.0100002L6.5 1.39504e-08ZM37 10.746L20.7 19.326C20.5159 19.4232 20.3137 19.4811 20.106 19.4959C19.8984 19.5107 19.69 19.4821 19.494 19.412L19.302 19.328L3 10.748V25.5C3.00003 26.3784 3.33034 27.2246 3.92536 27.8708C4.52038 28.5169 5.3366 28.9157 6.212 28.988L6.5 29H33.5C34.3787 28.9999 35.2252 28.6693 35.8714 28.0739C36.5176 27.4785 36.9162 26.6618 36.988 25.786L37 25.5V10.746ZM33.5 3H6.5C5.62162 3.00003 4.77536 3.33034 4.12922 3.92536C3.48307 4.52038 3.08428 5.3366 3.012 6.212L3 6.5V7.358L20 16.306L37 7.356V6.5C36.9999 5.6213 36.6693 4.77478 36.0739 4.12858C35.4785 3.48239 34.6618 3.0838 33.786 3.012L33.5 3Z" fill="white"/>
</svg>
