<svg width="28" height="28" viewBox="0 0 28 28" fill="none" xmlns="http://www.w3.org/2000/svg">
<mask id="path-1-inside-1_2106_27" fill="white">
<path d="M6.39512 2.32446C6.29182 2.19157 6.16142 2.08218 6.01259 2.00356C5.86376 1.92494 5.6999 1.87889 5.53191 1.86846C5.36391 1.85803 5.19562 1.88347 5.03821 1.94308C4.8808 2.00269 4.73788 2.09512 4.61893 2.21421L2.80949 4.02542C1.96426 4.8724 1.65277 6.07112 2.02201 7.12284C3.55451 11.476 6.0474 15.4283 9.31578 18.6866C12.5741 21.9549 16.5263 24.4478 20.8794 25.9804C21.9311 26.3496 23.1299 26.0381 23.9768 25.1929L25.7863 23.3834C25.9054 23.2645 25.9978 23.1216 26.0574 22.9642C26.117 22.8067 26.1424 22.6385 26.132 22.4705C26.1216 22.3025 26.0755 22.1386 25.9969 21.9898C25.9183 21.8409 25.8089 21.7105 25.676 21.6072L21.6389 18.4678C21.4969 18.3577 21.3318 18.2813 21.156 18.2443C20.9802 18.2073 20.7982 18.2107 20.6239 18.2543L16.7915 19.2115C16.28 19.3394 15.7441 19.3326 15.2359 19.1919C14.7278 19.0511 14.2647 18.7812 13.8919 18.4083L9.59402 14.1087C9.22088 13.736 8.95061 13.273 8.80955 12.7649C8.66848 12.2567 8.66142 11.7207 8.78905 11.209L9.74802 7.37659C9.79161 7.20228 9.79504 7.02036 9.75805 6.84453C9.72107 6.66871 9.64464 6.50358 9.53453 6.36161L6.39512 2.32446ZM3.29772 0.894744C3.60395 0.588413 3.97185 0.350736 4.37698 0.197494C4.78211 0.0442513 5.21521 -0.0210489 5.64751 0.00592892C6.07982 0.0329068 6.50144 0.151545 6.88438 0.353967C7.26731 0.556388 7.60281 0.837961 7.86858 1.17999L11.008 5.21539C11.5837 5.95562 11.7867 6.91985 11.5592 7.82982L10.602 11.6622C10.5525 11.8607 10.5552 12.0686 10.6098 12.2658C10.6643 12.463 10.769 12.6427 10.9135 12.7875L15.2131 17.0871C15.3581 17.2319 15.5381 17.3367 15.7355 17.3913C15.933 17.4459 16.1413 17.4484 16.3401 17.3986L20.1707 16.4414C20.6198 16.3291 21.0885 16.3204 21.5414 16.4159C21.9943 16.5114 22.4196 16.7086 22.7851 16.9926L26.8205 20.132C28.2712 21.2607 28.4042 23.4044 27.1057 24.7012L25.2963 26.5106C24.0013 27.8056 22.0659 28.3743 20.2617 27.7391C15.6439 26.1143 11.4512 23.4707 7.99457 20.0043C4.52844 16.5481 1.88483 12.356 0.259816 7.73883C-0.373664 5.93637 0.195068 3.99917 1.49003 2.7042L3.29947 0.894744H3.29772Z"/>
</mask>
<path d="M6.39512 2.32446C6.29182 2.19157 6.16142 2.08218 6.01259 2.00356C5.86376 1.92494 5.6999 1.87889 5.53191 1.86846C5.36391 1.85803 5.19562 1.88347 5.03821 1.94308C4.8808 2.00269 4.73788 2.09512 4.61893 2.21421L2.80949 4.02542C1.96426 4.8724 1.65277 6.07112 2.02201 7.12284C3.55451 11.476 6.0474 15.4283 9.31578 18.6866C12.5741 21.9549 16.5263 24.4478 20.8794 25.9804C21.9311 26.3496 23.1299 26.0381 23.9768 25.1929L25.7863 23.3834C25.9054 23.2645 25.9978 23.1216 26.0574 22.9642C26.117 22.8067 26.1424 22.6385 26.132 22.4705C26.1216 22.3025 26.0755 22.1386 25.9969 21.9898C25.9183 21.8409 25.8089 21.7105 25.676 21.6072L21.6389 18.4678C21.4969 18.3577 21.3318 18.2813 21.156 18.2443C20.9802 18.2073 20.7982 18.2107 20.6239 18.2543L16.7915 19.2115C16.28 19.3394 15.7441 19.3326 15.2359 19.1919C14.7278 19.0511 14.2647 18.7812 13.8919 18.4083L9.59402 14.1087C9.22088 13.736 8.95061 13.273 8.80955 12.7649C8.66848 12.2567 8.66142 11.7207 8.78905 11.209L9.74802 7.37659C9.79161 7.20228 9.79504 7.02036 9.75805 6.84453C9.72107 6.66871 9.64464 6.50358 9.53453 6.36161L6.39512 2.32446ZM3.29772 0.894744C3.60395 0.588413 3.97185 0.350736 4.37698 0.197494C4.78211 0.0442513 5.21521 -0.0210489 5.64751 0.00592892C6.07982 0.0329068 6.50144 0.151545 6.88438 0.353967C7.26731 0.556388 7.60281 0.837961 7.86858 1.17999L11.008 5.21539C11.5837 5.95562 11.7867 6.91985 11.5592 7.82982L10.602 11.6622C10.5525 11.8607 10.5552 12.0686 10.6098 12.2658C10.6643 12.463 10.769 12.6427 10.9135 12.7875L15.2131 17.0871C15.3581 17.2319 15.5381 17.3367 15.7355 17.3913C15.933 17.4459 16.1413 17.4484 16.3401 17.3986L20.1707 16.4414C20.6198 16.3291 21.0885 16.3204 21.5414 16.4159C21.9943 16.5114 22.4196 16.7086 22.7851 16.9926L26.8205 20.132C28.2712 21.2607 28.4042 23.4044 27.1057 24.7012L25.2963 26.5106C24.0013 27.8056 22.0659 28.3743 20.2617 27.7391C15.6439 26.1143 11.4512 23.4707 7.99457 20.0043C4.52844 16.5481 1.88483 12.356 0.259816 7.73883C-0.373664 5.93637 0.195068 3.99917 1.49003 2.7042L3.29947 0.894744H3.29772Z" fill="#006939"/>
<path d="M6.39512 2.32446L4.81611 3.55195L4.8163 3.55219L6.39512 2.32446ZM4.61893 2.21421L6.03383 3.62774L6.03403 3.62754L4.61893 2.21421ZM2.80949 4.02542L1.39458 2.61189L1.39381 2.61267L2.80949 4.02542ZM2.02201 7.12284L0.134929 7.78536L0.135498 7.78697L2.02201 7.12284ZM9.31578 18.6866L10.7322 17.2745L10.7278 17.2702L9.31578 18.6866ZM20.8794 25.9804L20.2153 27.8669L20.2169 27.8675L20.8794 25.9804ZM23.9768 25.1929L25.3896 26.6086L25.391 26.6071L23.9768 25.1929ZM25.7863 23.3834L24.3729 21.9684L24.372 21.9692L25.7863 23.3834ZM25.676 21.6072L24.4483 23.186L24.4485 23.1862L25.676 21.6072ZM21.6389 18.4678L22.8666 16.889L22.8646 16.8874L21.6389 18.4678ZM20.6239 18.2543L21.1086 20.1947L21.1091 20.1946L20.6239 18.2543ZM16.7915 19.2115L16.3069 17.2712L16.3066 17.2712L16.7915 19.2115ZM13.8919 18.4083L12.4774 19.8222L12.4777 19.8226L13.8919 18.4083ZM9.59402 14.1087L11.0085 12.6947L11.0074 12.6936L9.59402 14.1087ZM8.78905 11.209L6.84887 10.7235L6.8485 10.725L8.78905 11.209ZM9.74802 7.37659L11.6882 7.86207L11.6883 7.86177L9.74802 7.37659ZM9.53453 6.36161L11.1149 5.13588L11.1133 5.13388L9.53453 6.36161ZM3.29772 0.894744L1.88328 -0.51924L-1.5296 2.89474L3.29772 2.89474V0.894744ZM7.86858 1.17999L6.28932 2.40715L6.29002 2.40805L7.86858 1.17999ZM11.008 5.21539L12.5867 3.98751L12.5865 3.98732L11.008 5.21539ZM11.5592 7.82982L9.61893 7.34476L9.61882 7.34517L11.5592 7.82982ZM10.602 11.6622L8.6616 11.1776L8.6614 11.1784L10.602 11.6622ZM10.9135 12.7875L9.49796 14.2004L9.49926 14.2017L10.9135 12.7875ZM15.2131 17.0871L13.7989 18.5013L13.7996 18.502L15.2131 17.0871ZM16.3401 17.3986L15.8552 15.4583L15.8539 15.4586L16.3401 17.3986ZM20.1707 16.4414L20.6556 18.3817L20.6558 18.3816L20.1707 16.4414ZM22.7851 16.9926L24.0132 15.414L24.0123 15.4134L22.7851 16.9926ZM26.8205 20.132L28.0486 18.5535L28.0486 18.5535L26.8205 20.132ZM27.1057 24.7012L25.6925 23.286L25.6915 23.287L27.1057 24.7012ZM25.2963 26.5106L26.7105 27.9248L26.7105 27.9248L25.2963 26.5106ZM20.2617 27.7391L20.9259 25.8526L20.9255 25.8525L20.2617 27.7391ZM7.99457 20.0043L9.41079 18.5921L9.40674 18.588L7.99457 20.0043ZM0.259816 7.73883L-1.62704 8.40197L-1.62675 8.4028L0.259816 7.73883ZM1.49003 2.7042L0.0758091 1.28999L0.075809 1.28999L1.49003 2.7042ZM3.29947 0.894744L4.71369 2.30895L8.12787 -1.10526L3.29947 -1.10526V0.894744ZM7.97413 1.09697C7.69669 0.740074 7.34648 0.446292 6.94677 0.235142L5.07841 3.77198C4.97636 3.71807 4.88695 3.64306 4.81611 3.55195L7.97413 1.09697ZM6.94677 0.235142C6.54706 0.0239914 6.107 -0.0996944 5.65581 -0.127699L5.40801 3.86462C5.29281 3.85747 5.18046 3.82589 5.07841 3.77198L6.94677 0.235142ZM5.65581 -0.127699C5.20462 -0.155704 4.75264 -0.0873876 4.32989 0.0727133L5.74653 3.81345C5.6386 3.85433 5.5232 3.87177 5.40801 3.86462L5.65581 -0.127699ZM4.32989 0.0727133C3.90713 0.232814 3.52328 0.481033 3.20383 0.800884L6.03403 3.62754C5.95247 3.7092 5.85447 3.77257 5.74653 3.81345L4.32989 0.0727133ZM3.20403 0.800687L1.39458 2.61189L4.22439 5.43894L6.03383 3.62774L3.20403 0.800687ZM1.39381 2.61267C0.067421 3.94181 -0.516428 5.93006 0.13493 7.78536L3.90909 6.46033C3.82197 6.21218 3.8611 5.80298 4.22517 5.43816L1.39381 2.61267ZM0.135498 7.78697C1.76769 12.4233 4.42276 16.6327 7.90377 20.103L10.7278 17.2702C7.67204 14.2239 5.34132 10.5287 3.90852 6.45871L0.135498 7.78697ZM7.89938 20.0986C11.3696 23.5796 15.579 26.2346 20.2153 27.8669L21.5436 24.0939C17.4736 22.661 13.7785 20.3303 10.7322 17.2745L7.89938 20.0986ZM20.2169 27.8675C22.0722 28.5188 24.0604 27.935 25.3896 26.6086L22.5641 23.7772C22.1993 24.1413 21.7901 24.1804 21.5419 24.0933L20.2169 27.8675ZM25.391 26.6071L27.2005 24.7977L24.372 21.9692L22.5626 23.7787L25.391 26.6071ZM27.1996 24.7985C27.5194 24.4791 27.7677 24.0952 27.9278 23.6725L24.187 22.2558C24.2279 22.1479 24.2913 22.0499 24.3729 21.9684L27.1996 24.7985ZM27.9278 23.6725C28.0879 23.2497 28.1562 22.7977 28.1282 22.3466L24.1359 22.5944C24.1287 22.4792 24.1461 22.3638 24.187 22.2558L27.9278 23.6725ZM28.1282 22.3466C28.1002 21.8954 27.9765 21.4553 27.7653 21.0556L24.2285 22.9239C24.1746 22.8219 24.143 22.7095 24.1359 22.5944L28.1282 22.3466ZM27.7653 21.0556C27.5542 20.6559 27.2604 20.3057 26.9035 20.0282L24.4485 23.1862C24.3574 23.1154 24.2824 23.026 24.2285 22.9239L27.7653 21.0556ZM26.9038 20.0284L22.8666 16.889L20.4112 20.0466L24.4483 23.186L26.9038 20.0284ZM22.8646 16.8874C22.4833 16.5917 22.0399 16.3864 21.5677 16.2871L20.7443 20.2015C20.6237 20.1761 20.5105 20.1237 20.4132 20.0482L22.8646 16.8874ZM21.5677 16.2871C21.0955 16.1878 20.6069 16.197 20.1387 16.3141L21.1091 20.1946C20.9896 20.2245 20.8648 20.2268 20.7443 20.2015L21.5677 16.2871ZM20.1393 16.3139L16.3069 17.2712L17.2762 21.1519L21.1086 20.1947L20.1393 16.3139ZM16.3066 17.2712C16.1301 17.3153 15.9452 17.313 15.7698 17.2644L14.702 21.1193C15.543 21.3522 16.4299 21.3635 17.2765 21.1519L16.3066 17.2712ZM15.7698 17.2644C15.5945 17.2159 15.4347 17.1227 15.3061 16.9941L12.4777 19.8226C13.0947 20.4396 13.8611 20.8863 14.702 21.1193L15.7698 17.2644ZM15.3064 16.9944L11.0085 12.6948L8.17952 15.5226L12.4774 19.8222L15.3064 16.9944ZM11.0074 12.6936C10.8786 12.565 10.7853 12.4052 10.7367 12.2299L6.88243 13.2999C7.11589 14.1408 7.56316 14.907 8.1807 15.5238L11.0074 12.6936ZM10.7367 12.2299C10.688 12.0546 10.6856 11.8696 10.7296 11.693L6.8485 10.725C6.63728 11.5718 6.64896 12.4589 6.88243 13.2999L10.7367 12.2299ZM10.7292 11.6945L11.6882 7.86207L7.80784 6.8911L6.84887 10.7235L10.7292 11.6945ZM11.6883 7.86177C11.8053 7.39365 11.8146 6.90506 11.7152 6.43286L7.80088 7.25621C7.77552 7.13565 7.77788 7.01092 7.80776 6.89141L11.6883 7.86177ZM11.7152 6.43286C11.6159 5.96065 11.4106 5.51718 11.1149 5.13589L7.95415 7.58734C7.87865 7.48999 7.82624 7.37677 7.80088 7.25621L11.7152 6.43286ZM11.1133 5.13388L7.97394 1.09673L4.8163 3.55219L7.95571 7.58934L11.1133 5.13388ZM4.71216 2.30873C4.81783 2.20303 4.94477 2.12102 5.08456 2.06814L3.6694 -1.67316C2.99893 -1.41955 2.39008 -1.0262 1.88328 -0.51924L4.71216 2.30873ZM5.08456 2.06814C5.22435 2.01527 5.37378 1.99274 5.52295 2.00205L5.77208 -1.99019C5.05664 -2.03484 4.33988 -1.92677 3.6694 -1.67316L5.08456 2.06814ZM5.52295 2.00205C5.67211 2.01135 5.81759 2.05229 5.94972 2.12213L7.81903 -1.4142C7.18529 -1.7492 6.48753 -1.94554 5.77208 -1.99019L5.52295 2.00205ZM5.94972 2.12213C6.08185 2.19198 6.19761 2.28913 6.28932 2.40715L9.44784 -0.0471766C9.008 -0.613213 8.45278 -1.0792 7.81903 -1.4142L5.94972 2.12213ZM6.29002 2.40805L9.42942 6.44345L12.5865 3.98732L9.44714 -0.0480782L6.29002 2.40805ZM9.42927 6.44326C9.62713 6.69766 9.69759 7.03008 9.61893 7.34476L13.4995 8.31489C13.8758 6.80961 13.5403 5.21358 12.5867 3.98751L9.42927 6.44326ZM9.61882 7.34517L8.6616 11.1776L12.5424 12.1469L13.4996 8.31448L9.61882 7.34517ZM8.6614 11.1784C8.52849 11.7115 8.53566 12.2699 8.68225 12.7994L12.5373 11.7322C12.5747 11.8674 12.5765 12.01 12.5426 12.1461L8.6614 11.1784ZM8.68225 12.7994C8.82882 13.3289 9.10982 13.8115 9.49796 14.2004L12.329 11.3745C12.4281 11.4738 12.4998 11.597 12.5373 11.7322L8.68225 12.7994ZM9.49926 14.2017L13.7989 18.5013L16.6273 15.6729L12.3277 11.3732L9.49926 14.2017ZM13.7996 18.502C14.1889 18.8909 14.6723 19.1724 15.2027 19.319L16.2684 15.4636C16.4038 15.501 16.5272 15.5729 16.6266 15.6722L13.7996 18.502ZM15.2027 19.319C15.7331 19.4656 16.2925 19.4724 16.8263 19.3386L15.8539 15.4586C15.9901 15.4244 16.1329 15.4262 16.2684 15.4636L15.2027 19.319ZM16.8249 19.3389L20.6556 18.3817L19.6858 14.501L15.8552 15.4583L16.8249 19.3389ZM20.6558 18.3816C20.8108 18.3429 20.9725 18.3399 21.1288 18.3728L21.954 14.4589C21.2044 14.3008 20.4287 14.3153 19.6856 14.5011L20.6558 18.3816ZM21.1288 18.3728C21.2851 18.4058 21.4318 18.4738 21.5579 18.5718L24.0123 15.4134C23.4074 14.9433 22.7036 14.6169 21.954 14.4589L21.1288 18.3728ZM21.557 18.5712L25.5924 21.7106L28.0486 18.5535L24.0132 15.414L21.557 18.5712ZM25.5923 21.7105C26.0947 22.1014 26.1381 22.841 25.6925 23.286L28.519 26.1163C30.6703 23.9679 30.4476 20.4201 28.0486 18.5535L25.5923 21.7105ZM25.6915 23.287L23.8821 25.0964L26.7105 27.9248L28.5199 26.1154L25.6915 23.287ZM23.8821 25.0964C23.0654 25.9131 21.9202 26.2027 20.9259 25.8526L19.5975 29.6256C22.2116 30.546 24.9372 29.6981 26.7105 27.9248L23.8821 25.0964ZM20.9255 25.8525C16.5909 24.3273 12.6554 21.8458 9.41078 18.5921L6.57837 21.4165C10.247 25.0955 14.6969 27.9013 19.5979 29.6257L20.9255 25.8525ZM9.40674 18.588C6.1532 15.3439 3.67173 11.4089 2.14638 7.07485L-1.62675 8.4028C0.0979287 13.3032 2.90368 17.7524 6.5824 21.4205L9.40674 18.588ZM2.14668 7.07568C1.79766 6.08262 2.08757 4.93509 2.90425 4.11841L0.075809 1.28999C-1.69744 3.06325 -2.54499 5.79013 -1.62704 8.40197L2.14668 7.07568ZM2.90425 4.11841L4.71369 2.30895L1.88525 -0.519464L0.0758091 1.28999L2.90425 4.11841ZM3.29947 -1.10526H3.29772V2.89474H3.29947V-1.10526Z" fill="#006939" mask="url(#path-1-inside-1_2106_27)"/>
</svg>
