<svg width="26" height="18" viewBox="0 0 26 18" fill="none" xmlns="http://www.w3.org/2000/svg">
<path d="M1.89583 0H24.1042C25.1507 0 26 0.8064 26 1.8V16.2C26 16.6774 25.8003 17.1352 25.4447 17.4728C25.0892 17.8104 24.607 18 24.1042 18H1.89583C1.39303 18 0.910814 17.8104 0.555277 17.4728C0.199739 17.1352 0 16.6774 0 16.2L0 1.8C0 0.8064 0.849333 0 1.89583 0ZM1.625 4.53806V16.2C1.625 16.3419 1.74633 16.4571 1.89583 16.4571H24.1042C24.176 16.4571 24.2449 16.4301 24.2957 16.3818C24.3465 16.3336 24.375 16.2682 24.375 16.2V4.53806L14.0617 11.1549C13.4203 11.5663 12.5797 11.5663 11.9383 11.1549L1.625 4.53806ZM1.625 1.8V2.67634L12.8483 9.87634C12.8931 9.90509 12.9459 9.92044 13 9.92044C13.0541 9.92044 13.1069 9.90509 13.1517 9.87634L24.375 2.67634V1.8C24.375 1.7318 24.3465 1.6664 24.2957 1.61817C24.2449 1.56995 24.176 1.54286 24.1042 1.54286H1.89583C1.824 1.54286 1.75512 1.56995 1.70433 1.61817C1.65353 1.6664 1.625 1.7318 1.625 1.8Z" fill="#006939"/>
</svg>
