<svg width="35" height="36" viewBox="0 0 35 36" fill="none" xmlns="http://www.w3.org/2000/svg">
<g clip-path="url(#clip0_280_4262)">
<path fill-rule="evenodd" clip-rule="evenodd" d="M4.12447 1.61722C4.50722 1.23504 4.96683 0.938564 5.47284 0.747446C5.97884 0.556328 6.51968 0.474929 7.05952 0.508643C7.59936 0.542358 8.12587 0.690415 8.60417 0.943005C9.08246 1.19559 9.50161 1.54695 9.83384 1.97378L13.7604 7.01816C14.4801 7.94347 14.7338 9.14878 14.4495 10.2863L13.2529 15.0769C13.191 15.325 13.1944 15.5849 13.2626 15.8314C13.3308 16.0779 13.4616 16.3025 13.6423 16.4835L19.017 21.8582C19.1982 22.0392 19.4232 22.1702 19.67 22.2384C19.9169 22.3067 20.1773 22.3098 20.4257 22.2475L25.2142 21.051C25.7755 20.9106 26.3614 20.8997 26.9276 21.0191C27.4938 21.1385 28.0254 21.385 28.4823 21.74L33.5267 25.6644C35.3401 27.0753 35.5063 29.755 33.8832 31.376L31.6213 33.6378C30.0026 35.2566 27.5832 35.9675 25.3279 35.1735C19.5555 33.1424 14.3144 29.8378 9.99353 25.5047C5.66072 21.1844 2.35611 15.9442 0.32478 10.1725C-0.467095 7.91941 0.243843 5.49784 1.86259 3.87909L4.12447 1.61722Z" fill="#006939"/>
</g>
<defs>
<clipPath id="clip0_280_4262">
<rect width="35" height="35" fill="white" transform="translate(0 0.5)"/>
</clipPath>
</defs>
</svg>
