<svg width="132" height="94" viewBox="0 0 132 94" fill="none" xmlns="http://www.w3.org/2000/svg">
<path fill-rule="evenodd" clip-rule="evenodd" d="M85 74.6562C97.9279 55.6584 119.072 57.0021 132 76V18.0005C119.072 36.9983 97.9279 38.3533 85 19.3555V74.6562Z" fill="#272727"/>
<g clip-path="url(#clip0_2001_2787)">
<path d="M94 47C94 72.9574 72.9574 94 47 94C21.0426 94 0 72.9574 0 47C0 21.0426 21.0426 0 47 0C72.9574 0 94 21.0426 94 47Z" fill="url(#paint0_linear_2001_2787)"/>
<path fill-rule="evenodd" clip-rule="evenodd" d="M47 92.5758C72.1708 92.5758 92.5758 72.1708 92.5758 47C92.5758 21.8292 72.1708 1.42424 47 1.42424C21.8292 1.42424 1.42424 21.8292 1.42424 47C1.42424 72.1708 21.8292 92.5758 47 92.5758ZM47 94C72.9574 94 94 72.9574 94 47C94 21.0426 72.9574 0 47 0C21.0426 0 0 21.0426 0 47C0 72.9574 21.0426 94 47 94Z" fill="white"/>
<path d="M67 17C66.4228 30.8735 68.6164 53.7396 44.1023 68.3617C38.2707 71.8401 30.0637 72.3717 25.498 66.9348C20.9324 61.4979 22.7771 51.6056 29.7912 46.2476C50.0119 29.5291 65.8647 28.0201 67 17Z" fill="url(#paint1_linear_2001_2787)"/>
<path fill-rule="evenodd" clip-rule="evenodd" d="M29.7912 46.2476C22.7771 51.6056 20.9324 61.4979 25.498 66.9348C30.0637 72.3717 38.2707 71.8401 44.1023 68.3617C65.8856 55.3685 66.5801 35.8657 66.8696 21.9474C66.8736 21.7542 66.8775 21.5621 66.8815 21.3709C66.9128 19.8369 66.9429 18.3744 67 17C66.8237 18.7123 66.2919 20.1951 65.4435 21.5409C63.11 25.2433 58.3811 27.9095 52.0652 31.4706C45.9016 34.9458 38.2264 39.2733 29.7912 46.2476ZM65.3861 23.9973C63.1935 26.5185 59.9919 28.5641 56.272 30.7203C55.1566 31.3667 53.9806 32.03 52.749 32.7245C46.588 36.1991 39.0336 40.4596 30.7047 47.3458L30.6835 47.3633L30.6616 47.3801C27.4403 49.8408 25.4071 53.3454 24.7055 56.8415C24.0012 60.35 24.6561 63.7097 26.5952 66.019C30.5113 70.6824 37.8299 70.4405 43.3675 67.1374C63.4252 55.1734 65.0193 37.6493 65.3861 23.9973Z" fill="white"/>
<path d="M59 33C54.4094 46.5873 47.683 62.0581 37.2245 64.7572C34.4546 65.472 30.3398 64.6457 28.7021 61.7833C26.6202 57.1894 29.6109 52.351 31.9152 50.7207C44.3979 41.8883 52.8687 41.6662 59 33Z" fill="url(#paint2_linear_2001_2787)"/>
<path d="M51 45C48.7747 49.1754 40.6498 60.2615 36.3727 60.9448C35.0678 61.1532 32.8533 60.8167 32.1444 59.1482C31.5464 56.9871 32.9073 55.6584 34.3693 54.9729C40.7243 52.304 48.7889 47.7767 51 45Z" fill="url(#paint3_linear_2001_2787)"/>
</g>
<defs>
<linearGradient id="paint0_linear_2001_2787" x1="66.9394" y1="6.40909" x2="25.6364" y2="88.303" gradientUnits="userSpaceOnUse">
<stop offset="0.304527" stop-color="#44D2FF"/>
<stop offset="0.311048" stop-color="#1B86B5"/>
<stop offset="0.656777" stop-color="#015686"/>
<stop offset="0.661894" stop-color="#083992"/>
<stop offset="1" stop-color="#112060"/>
</linearGradient>
<linearGradient id="paint1_linear_2001_2787" x1="27.6441" y1="67.6485" x2="66.855" y2="19.7353" gradientUnits="userSpaceOnUse">
<stop stop-color="#00163A"/>
<stop offset="1" stop-color="#0063FF"/>
</linearGradient>
<linearGradient id="paint2_linear_2001_2787" x1="57.439" y1="32.6789" x2="29.8742" y2="63.0713" gradientUnits="userSpaceOnUse">
<stop stop-color="#B81006"/>
<stop offset="1" stop-color="#6F0000"/>
</linearGradient>
<linearGradient id="paint3_linear_2001_2787" x1="46.7924" y1="49.4957" x2="33.278" y2="60.37" gradientUnits="userSpaceOnUse">
<stop stop-color="#FE9800"/>
<stop offset="1" stop-color="#CF3201"/>
</linearGradient>
<clipPath id="clip0_2001_2787">
<rect width="94" height="94" fill="white"/>
</clipPath>
</defs>
</svg>
